<?xml version="1.0" standalone="no"?>
<!DOCTYPE svg PUBLIC "-//W3C//DTD SVG 20010904//EN"
 "http://www.w3.org/TR/2001/REC-SVG-20010904/DTD/svg10.dtd">
<svg version="1.0" xmlns="http://www.w3.org/2000/svg"
 width="598.000000pt" height="577.000000pt" viewBox="0 0 598.000000 577.000000"
 preserveAspectRatio="xMidYMid meet" stroke="none" fill="none">
<rect width="100%" height="100%" stroke="rgba(196,0,0,0.016)" fill="#000000" />
<g transform="translate(0.000000,577.000000) scale(0.100000,-0.100000)"
fill="#FFF" stroke="#000000">
<path d="M0 2885 l0 -2885 2990 0 2990 0 0 2885 0 2885 -2990 0 -2990 0 0
-2885z m3177 2637 c18 -9 292 -273 610 -587 318 -313 724 -714 903 -890 836
-823 954 -943 990 -997 66 -101 72 -224 18 -338 -30 -63 -728 -767 -1348
-1361 -313 -300 -609 -595 -883 -881 -253 -264 -282 -284 -392 -276 -45 4 -78
14 -112 33 -26 16 -142 121 -258 234 -194 190 -255 249 -450 431 -300 279
-406 380 -515 485 -69 66 -193 185 -275 265 -83 79 -245 236 -360 350 -116
113 -307 297 -425 410 -356 340 -365 351 -365 475 0 105 30 158 178 311 67 69
167 165 222 214 146 129 1114 1094 1169 1166 25 33 65 71 89 84 53 29 99 63
159 115 29 26 78 54 132 75 l86 33 192 201 c410 430 422 442 499 465 41 12 93
5 136 -17z m-2555 -2076 c-67 -61 -271 -224 -247 -196 11 12 75 67 142 121 67
54 124 103 128 109 3 5 10 10 15 10 5 0 -12 -20 -38 -44z"/>
<path d="M3001 5446 c-53 -44 -162 -155 -321 -326 -205 -220 -292 -304 -356
-348 -33 -22 -74 -57 -90 -77 -82 -104 -117 -131 -199 -159 -44 -15 -96 -39
-116 -54 -20 -15 -303 -291 -630 -613 -327 -322 -646 -635 -710 -695 -141
-132 -165 -160 -184 -214 -34 -97 -10 -176 82 -268 238 -238 1304 -1271 1453
-1408 201 -185 514 -483 795 -759 289 -284 312 -300 406 -275 38 10 73 40 239
203 107 106 237 235 288 287 50 52 96 94 100 93 5 -1 29 19 53 45 l44 47 -50
-45 -50 -45 49 52 c27 29 53 50 58 47 4 -3 8 3 8 12 0 10 3 14 7 11 7 -8 39
34 35 46 -1 5 2 6 7 3 5 -3 15 2 22 11 12 14 12 16 0 8 -10 -5 -12 -4 -7 3 4
7 17 17 29 24 21 11 21 10 7 -8 -8 -10 27 21 77 70 51 50 89 95 86 100 -3 6
-2 8 2 3 8 -7 237 213 393 378 124 130 581 593 823 835 280 278 307 314 316
422 10 103 -9 128 -334 450 -158 155 -709 704 -1225 1218 -516 514 -951 940
-966 947 -51 23 -97 16 -141 -21z m-61 -714 c74 -30 182 -71 239 -91 l105 -37
95 -142 c123 -182 126 -185 198 -190 l58 -4 69 -112 c38 -61 86 -134 107 -162
37 -50 40 -52 106 -63 37 -7 114 -23 171 -36 57 -14 116 -25 130 -25 28 0 25
3 297 -340 106 -134 284 -381 298 -412 6 -16 19 -28 29 -28 23 0 279 -103 482
-194 l60 -27 -22 -22 c-22 -21 -23 -21 -50 -4 -88 58 -392 189 -467 202 -22 4
-47 9 -56 11 -8 2 -42 44 -75 92 -32 48 -108 152 -169 231 -60 79 -125 164
-144 190 -94 128 -174 220 -198 229 -16 6 -91 23 -168 37 -201 37 -217 41
-237 67 -10 13 -58 82 -105 153 -48 72 -93 136 -102 143 -8 6 -36 12 -63 12
-52 0 -65 10 -115 84 -15 23 -65 93 -110 156 -78 109 -85 116 -145 142 -68 30
-270 100 -274 95 -4 -3 31 -237 49 -332 8 -40 16 -64 21 -57 4 7 34 30 67 53
33 22 94 70 135 106 41 36 78 63 81 60 3 -3 -17 -34 -43 -67 l-49 -62 32 -57
c18 -32 54 -111 81 -177 27 -65 79 -180 116 -256 36 -75 66 -140 66 -144 0
-26 -112 113 -206 256 l-49 75 -7 -35 c-4 -19 -16 -71 -27 -115 -11 -44 -27
-138 -36 -210 -11 -84 -21 -133 -30 -138 -7 -4 -61 -77 -120 -162 -59 -85
-112 -158 -118 -162 -5 -3 3 14 20 38 53 77 63 105 82 241 11 73 23 141 26
151 9 21 7 21 -41 2 -80 -32 -246 -136 -342 -213 -24 -19 -45 -32 -48 -29 -5
5 185 221 327 372 103 110 199 227 199 243 0 23 -43 10 -171 -51 -63 -30 -124
-57 -136 -61 -28 -9 -28 -3 -8 109 8 44 15 82 15 85 0 7 -71 -106 -109 -175
-19 -33 -72 -118 -119 -190 -271 -412 -337 -507 -414 -591 -45 -50 -112 -125
-147 -167 -35 -43 -66 -77 -68 -77 -3 0 7 15 22 33 147 179 186 251 240 442
44 155 74 231 116 297 17 27 29 51 27 54 -3 2 -34 -18 -69 -44 -180 -136 -231
-172 -327 -227 -102 -58 -107 -62 -156 -141 -28 -45 -82 -124 -119 -175 -37
-52 -102 -141 -143 -199 -85 -119 -99 -135 -60 -70 53 89 89 166 116 251 16
48 34 97 40 109 25 46 -3 30 -86 -51 -92 -89 -178 -198 -288 -366 -37 -57 -69
-103 -72 -103 -8 0 74 156 90 169 24 20 20 40 -6 34 -25 -7 -332 -122 -388
-146 l-35 -15 -34 39 c-41 50 -38 54 82 112 83 40 225 138 452 314 39 30 115
88 170 130 186 143 320 264 399 363 55 68 139 202 150 238 4 12 23 29 43 38
37 18 199 161 294 260 31 33 113 136 183 229 212 284 205 277 229 269 12 -3
83 -31 157 -62z m-167 -1245 c-53 -58 -85 -113 -128 -227 -37 -98 -128 -399
-211 -695 -56 -203 -68 -227 -59 -125 18 224 45 663 41 667 -3 3 -154 -146
-277 -273 -164 -170 -339 -387 -339 -420 0 -18 -32 -34 -67 -34 -36 0 -116
-38 -173 -81 -25 -19 -74 -55 -110 -79 -55 -38 -39 -19 115 130 240 234 252
246 293 310 20 30 45 65 56 78 11 12 17 22 14 22 -4 0 -84 -38 -179 -85 -227
-112 -247 -112 -131 -4 37 35 127 102 201 149 239 153 324 211 479 329 84 64
210 156 280 205 70 48 150 108 177 132 28 24 52 43 54 44 2 0 -14 -19 -36 -43z
m1974 -971 c171 -85 354 -184 372 -201 1 -2 -28 -32 -65 -67 -93 -84 -457
-442 -982 -964 l-434 -431 -36 18 c-21 10 -88 44 -150 74 -63 30 -153 77 -200
103 -583 329 -614 344 -757 375 -121 27 -256 68 -352 106 -37 15 -53 17 -53 8
0 -22 14 -34 55 -47 63 -20 250 -136 313 -195 31 -29 75 -77 97 -107 37 -50
44 -55 105 -69 36 -9 151 -44 255 -77 327 -105 640 -194 688 -196 9 0 17 -3
17 -6 0 -3 -112 -117 -248 -253 l-248 -247 -49 0 -48 0 -211 207 c-571 562
-676 665 -741 723 -107 97 -785 761 -795 779 -10 19 41 19 395 1 345 -19 452
-32 985 -120 479 -79 583 -107 980 -265 369 -147 368 -147 350 -135 -27 19
-183 108 -360 206 -96 53 -208 115 -249 138 l-74 41 -41 122 c-29 86 -46 123
-57 123 -8 0 -46 11 -84 23 -66 23 -70 26 -77 61 -13 61 -75 186 -92 186 -21
0 -22 7 22 -151 27 -99 41 -134 51 -131 7 2 40 -4 73 -14 72 -21 76 -16 -94
-110 -111 -61 -120 -64 -184 -64 -37 0 -153 12 -258 26 -105 14 -206 24 -223
22 -41 -5 -42 7 -3 27 47 24 510 336 600 404 l79 59 12 -36 c23 -72 59 -131
101 -165 28 -23 132 -73 288 -140 135 -58 275 -119 311 -135 l67 -30 21 29
c12 17 104 98 204 181 100 83 227 190 282 238 110 95 217 180 226 180 3 0 100
-47 216 -104z m-627 -1316 c0 -5 -5 -10 -11 -10 -5 0 -7 5 -4 10 3 6 8 10 11
10 2 0 4 -4 4 -10z"/>
<path d="M2475 4139 c-119 -62 -349 -253 -420 -350 -41 -56 -62 -96 -53 -104
2 -2 49 18 104 46 121 59 227 152 319 279 33 46 75 100 94 121 18 22 29 39 25
39 -5 0 -36 -14 -69 -31z"/>
<path d="M4629 1673 c-13 -16 -12 -17 4 -4 9 7 17 15 17 17 0 8 -8 3 -21 -13z"/>
<path d="M2200 988 c0 -3 51 -51 113 -108 61 -57 92 -82 67 -56 -48 51 -180
171 -180 164z"/>
<path d="M2430 773 c0 -5 30 -38 67 -73 l68 -65 -55 59 c-30 33 -61 66 -67 74
-7 7 -13 10 -13 5z"/>
<path d="M2570 638 c0 -2 34 -37 76 -78 42 -41 69 -63 60 -49 -15 23 -136 136
-136 127z"/>
<path d="M2730 477 c0 -2 15 -16 33 -33 l32 -29 -29 33 c-28 30 -36 37 -36 29z"/>
</g>
</svg>
