<?xml version="1.0" standalone="no"?>
<!DOCTYPE svg PUBLIC "-//W3C//DTD SVG 20010904//EN"
 "http://www.w3.org/TR/2001/REC-SVG-20010904/DTD/svg10.dtd">
<svg version="1.0" xmlns="http://www.w3.org/2000/svg"
 width="160.000000pt" height="160.000000pt" viewBox="0 0 160.000000 160.000000"
 preserveAspectRatio="xMidYMid meet">

<g transform="translate(0.000000,160.000000) scale(0.100000,-0.100000)"
fill="#FFF" stroke="none">
<path d="M715 1517 c-38 -22 -123 -71 -187 -109 l-118 -69 0 -208 0 -209 -180
-104 -180 -103 2 -230 3 -229 185 -108 c102 -59 190 -107 196 -108 6 0 90 45
187 101 l177 101 176 -101 c97 -56 181 -101 187 -101 10 0 260 140 345 193
l42 27 0 228 0 227 -38 21 c-20 11 -100 57 -177 103 l-140 82 -5 212 -5 212
-185 107 c-102 59 -192 107 -200 107 -8 0 -46 -19 -85 -42z m218 -93 c73 -42
140 -82 150 -89 16 -11 0 -23 -133 -99 l-150 -87 -150 87 c-83 47 -149 89
-146 91 5 6 290 172 294 173 2 0 63 -34 135 -76z m180 -512 c-21 -15 -274
-162 -279 -162 -2 0 -4 78 -4 174 l0 174 148 86 147 85 3 -172 c3 -156 1 -173
-15 -185z m193 -123 c76 -45 143 -84 147 -89 7 -6 -169 -116 -270 -169 -20
-10 -39 -2 -165 72 -79 46 -143 88 -143 92 0 8 272 173 286 174 3 1 69 -35
145 -80z m-1045 -235 l149 -86 0 -174 c0 -96 -2 -174 -5 -174 -6 0 -276 159
-292 172 -10 8 -13 56 -13 179 0 93 3 169 6 169 4 0 73 -39 155 -86z m509 -88
l0 -173 -147 -86 -148 -86 -3 172 c-3 156 -1 173 15 185 27 20 267 160 276
161 4 1 7 -77 7 -173z m206 94 c75 -43 141 -83 146 -88 5 -5 7 -86 6 -180 l-3
-171 -147 86 -148 86 0 173 c0 96 2 174 4 174 2 0 66 -36 142 -80z"/>
</g>
</svg>
